<svg xmlns="http://www.w3.org/2000/svg" viewBox="0 0 862.44 269.99" width="100px" height="42px" fill-rule="nonzero">
    <path fill="#004b87" d="M370.85 8.03H34.47C15.51 8.03 0 25.74 0 47.39v129.57c0 21.65 15.51 39.36 34.47 39.36h103.3l47.96 53.66v-53.66h185.12c18.96 0 34.47-17.71 34.47-39.36V47.39c0-21.65-15.51-39.36-34.47-39.36Z"></path>
    <path fill="#fff" d="M375.49 101.02a4.698 4.698 0 0 0-2.85-2.49h-3.81l-22.67-39.97c1.88-.8 3.21-2.67 3.21-4.85a5.27 5.27 0 0 0-5.27-5.27h-39.25c-2.16-5.92-7.79-10.17-14.45-10.17s-12.29 4.25-14.45 10.17H236.7a5.27 5.27 0 0 0-5.27 5.27c0 2.26 1.44 4.15 3.44 4.9l-22.63 39.9h-3.84c-1.01.31-1.86.95-2.44 1.74-.95 1.28-1.21 2.96-.51 4.59 5.42 12.7 18.02 21.61 32.71 21.61s27.29-8.91 32.71-21.61c.55-1.29.46-2.66-.09-3.82a4.698 4.698 0 0 0-2.85-2.49h-3.81l-22.44-39.55h34.28c1.56 4.27 4.92 7.63 9.18 9.18v90.83H256.4c-6.7 0-12.19 5.49-12.19 12.19v7.31c0 2.68 2.19 4.87 4.88 4.87h82.65c2.68 0 4.88-2.19 4.88-4.87v-7.31c0-6.71-5.49-12.19-12.19-12.19h-28.74V68.16a15.42 15.42 0 0 0 9.19-9.18h34.54l-22.43 39.53h-3.84c-1.01.31-1.86.95-2.44 1.74-.95 1.28-1.21 2.96-.51 4.59 5.42 12.7 18.02 21.61 32.71 21.61s27.29-8.91 32.71-21.61c.55-1.29.46-2.66-.09-3.82Zm-156.14-2.51 18.8-33.14 18.81 33.16-37.61-.02Zm104.73 0 18.8-33.14 18.81 33.16-37.61-.02ZM73.91 38.27h93.91v45.98h-93.9l.08 46.07c-24.6 0-44.81-21.1-44.72-46.18.08-24.96 19.68-45.87 44.64-45.87"></path>
    <path fill="#d2103a" d="M80.7 90.94h41.45v39.35H80.7z"></path>
    <path fill="#fff" d="M129.1 183.37H35.41l-.1-46.43h93.57l.05-46c24.9 0 44.79 21.05 44.83 46.13.04 25.09-19.58 46.3-44.67 46.3"></path>
    <text fill="#004b87" transform="translate(427.23 183.17)" style="font-size:221.49px;letter-spacing:-.02em"><tspan x="0" y="0">Blog</tspan></text></svg>