<svg xmlns="http://www.w3.org/2000/svg" xmlns:xlink="http://www.w3.org/1999/xlink" width="511" zoomAndPan="magnify" viewBox="0 0 383.25 404.99999" height="540" preserveAspectRatio="xMidYMid meet" version="1.0"><defs><g/><clipPath id="26647c1b37"><path d="M 25.289062 58.152344 L 366.621094 58.152344 L 366.621094 397.988281 L 25.289062 397.988281 Z M 25.289062 58.152344 " clip-rule="nonzero"/></clipPath><clipPath id="46e925e618"><path d="M 40.257812 58.152344 L 351.542969 58.152344 C 355.515625 58.152344 359.320312 59.730469 362.128906 62.539062 C 364.9375 65.347656 366.515625 69.152344 366.515625 73.125 L 366.515625 382.757812 C 366.515625 386.730469 364.9375 390.535156 362.128906 393.34375 C 359.320312 396.152344 355.515625 397.730469 351.542969 397.730469 L 40.257812 397.730469 C 36.289062 397.730469 32.480469 396.152344 29.671875 393.34375 C 26.863281 390.535156 25.289062 386.730469 25.289062 382.757812 L 25.289062 73.125 C 25.289062 69.152344 26.863281 65.347656 29.671875 62.539062 C 32.480469 59.730469 36.289062 58.152344 40.257812 58.152344 Z M 40.257812 58.152344 " clip-rule="nonzero"/></clipPath><clipPath id="5b7eb6bfc9"><path d="M 244.003906 157.453125 L 354.789062 157.453125 L 354.789062 272.726562 L 244.003906 272.726562 Z M 244.003906 157.453125 " clip-rule="nonzero"/></clipPath><clipPath id="71a7eafd10"><path d="M 29.566406 289.066406 L 362.242188 289.066406 L 362.242188 392.265625 L 29.566406 392.265625 Z M 29.566406 289.066406 " clip-rule="nonzero"/></clipPath><clipPath id="1996f175c3"><path d="M 0.566406 0.0664062 L 333.242188 0.0664062 L 333.242188 103.265625 L 0.566406 103.265625 Z M 0.566406 0.0664062 " clip-rule="nonzero"/></clipPath><clipPath id="439bbcfc38"><rect x="0" width="334" y="0" height="104"/></clipPath><clipPath id="3390417fea"><rect x="0" width="226" y="0" height="146"/></clipPath><clipPath id="49351ca4f3"><rect x="0" width="203" y="0" height="122"/></clipPath><clipPath id="072a498997"><rect x="0" width="303" y="0" height="86"/></clipPath></defs><g clip-path="url(#26647c1b37)"><g clip-path="url(#46e925e618)"><path stroke-linecap="butt" transform="matrix(0.748535, 0, 0, 0.748535, 25.287631, 58.153879)" fill="none" stroke-linejoin="miter" d="M 19.999305 -0.00205115 L 435.858449 -0.00205115 C 441.16569 -0.00205115 446.248535 2.106233 450.000655 5.858354 C 453.752776 9.610474 455.861061 14.693319 455.861061 20.00056 L 455.861061 433.652267 C 455.861061 438.959509 453.752776 444.042353 450.000655 447.794474 C 446.248535 451.546594 441.16569 453.654879 435.858449 453.654879 L 19.999305 453.654879 C 14.697283 453.654879 9.60922 451.546594 5.857099 447.794474 C 2.104979 444.042353 0.00191258 438.959509 0.00191258 433.652267 L 0.00191258 20.00056 C 0.00191258 14.693319 2.104979 9.610474 5.857099 5.858354 C 9.60922 2.106233 14.697283 -0.00205115 19.999305 -0.00205115 Z M 19.999305 -0.00205115 " stroke="#ffffff" stroke-width="16" stroke-opacity="1" stroke-miterlimit="4"/></g></g><g clip-path="url(#5b7eb6bfc9)"><path fill="#7ed957" d="M 350.34375 157.804688 L 345.378906 161.199219 C 319.410156 178.957031 292.820312 215.714844 279.554688 245.601562 C 277.507812 242.734375 276.886719 241.785156 274.902344 238.59375 C 266.792969 227.644531 256.507812 218.25 251.628906 214.777344 L 244.003906 217.960938 L 244.246094 218.414062 C 249.511719 224.175781 258.746094 236.957031 272.667969 265.121094 C 273.523438 266.335938 274.433594 267.53125 275.46875 268.644531 C 278.191406 271.5625 280.984375 272.175781 282.851562 272.175781 C 288.167969 272.175781 291.300781 267.980469 293.457031 263.070312 C 307.402344 211.34375 340.347656 175.730469 354.597656 163.535156 Z M 350.34375 157.804688 " fill-opacity="1" fill-rule="nonzero"/></g><g clip-path="url(#71a7eafd10)"><g transform="matrix(1, 0, 0, 1, 29, 289)"><g clip-path="url(#439bbcfc38)"><g clip-path="url(#1996f175c3)"><path fill="#ffffff" d="M 0.566406 0.0664062 L 333.136719 0.0664062 L 333.136719 103.265625 L 0.566406 103.265625 Z M 0.566406 0.0664062 " fill-opacity="1" fill-rule="nonzero"/></g></g></g></g><g transform="matrix(1, 0, 0, 1, 51, 62)"><g clip-path="url(#3390417fea)"><g fill="#ffffff" fill-opacity="1"><g transform="translate(0.020293, 115.822406)"><g><path d="M 8.921875 0 L 8.921875 -93.390625 L 27.78125 -93.390625 L 27.78125 0 Z M 8.921875 0 "/></g></g></g><g fill="#ffffff" fill-opacity="1"><g transform="translate(36.269403, 115.822406)"><g><path d="M 4.71875 -30.390625 L 23.0625 -32.171875 C 24.164062 -26.015625 26.40625 -21.488281 29.78125 -18.59375 C 33.15625 -15.707031 37.710938 -14.265625 43.453125 -14.265625 C 49.523438 -14.265625 54.097656 -15.550781 57.171875 -18.125 C 60.253906 -20.695312 61.796875 -23.703125 61.796875 -27.140625 C 61.796875 -29.347656 61.144531 -31.226562 59.84375 -32.78125 C 58.550781 -34.332031 56.289062 -35.679688 53.0625 -36.828125 C 50.851562 -37.585938 45.820312 -38.945312 37.96875 -40.90625 C 27.863281 -43.40625 20.769531 -46.484375 16.6875 -50.140625 C 10.957031 -55.273438 8.09375 -61.535156 8.09375 -68.921875 C 8.09375 -73.679688 9.441406 -78.128906 12.140625 -82.265625 C 14.835938 -86.410156 18.722656 -89.566406 23.796875 -91.734375 C 28.867188 -93.898438 34.992188 -94.984375 42.171875 -94.984375 C 53.890625 -94.984375 62.710938 -92.410156 68.640625 -87.265625 C 74.566406 -82.128906 77.675781 -75.273438 77.96875 -66.703125 L 59.125 -65.875 C 58.3125 -70.664062 56.578125 -74.113281 53.921875 -76.21875 C 51.265625 -78.320312 47.285156 -79.375 41.984375 -79.375 C 36.503906 -79.375 32.210938 -78.25 29.109375 -76 C 27.117188 -74.550781 26.125 -72.617188 26.125 -70.203125 C 26.125 -67.992188 27.054688 -66.101562 28.921875 -64.53125 C 31.296875 -62.539062 37.070312 -60.460938 46.25 -58.296875 C 55.425781 -56.128906 62.210938 -53.882812 66.609375 -51.5625 C 71.003906 -49.25 74.441406 -46.085938 76.921875 -42.078125 C 79.410156 -38.066406 80.65625 -33.109375 80.65625 -27.203125 C 80.65625 -21.847656 79.164062 -16.832031 76.1875 -12.15625 C 73.21875 -7.488281 69.015625 -4.019531 63.578125 -1.75 C 58.140625 0.519531 51.363281 1.65625 43.25 1.65625 C 31.445312 1.65625 22.378906 -1.070312 16.046875 -6.53125 C 9.722656 -11.988281 5.945312 -19.941406 4.71875 -30.390625 Z M 4.71875 -30.390625 "/></g></g></g><g fill="#ffffff" fill-opacity="1"><g transform="translate(123.292704, 115.822406)"><g><path d="M 5.671875 -46.125 C 5.671875 -55.632812 7.09375 -63.617188 9.9375 -70.078125 C 12.0625 -74.835938 14.957031 -79.101562 18.625 -82.875 C 22.300781 -86.65625 26.328125 -89.460938 30.703125 -91.296875 C 36.523438 -93.753906 43.238281 -94.984375 50.84375 -94.984375 C 64.601562 -94.984375 75.613281 -90.710938 83.875 -82.171875 C 92.132812 -73.640625 96.265625 -61.769531 96.265625 -46.5625 C 96.265625 -31.488281 92.164062 -19.691406 83.96875 -11.171875 C 75.769531 -2.660156 64.8125 1.59375 51.09375 1.59375 C 37.207031 1.59375 26.164062 -2.640625 17.96875 -11.109375 C 9.769531 -19.585938 5.671875 -31.257812 5.671875 -46.125 Z M 25.09375 -46.765625 C 25.09375 -36.179688 27.535156 -28.160156 32.421875 -22.703125 C 37.304688 -17.253906 43.507812 -14.53125 51.03125 -14.53125 C 58.539062 -14.53125 64.707031 -17.234375 69.53125 -22.640625 C 74.351562 -28.054688 76.765625 -36.179688 76.765625 -47.015625 C 76.765625 -57.710938 74.414062 -65.695312 69.71875 -70.96875 C 65.03125 -76.238281 58.800781 -78.875 51.03125 -78.875 C 43.257812 -78.875 36.992188 -76.207031 32.234375 -70.875 C 27.472656 -65.539062 25.09375 -57.503906 25.09375 -46.765625 Z M 25.09375 -46.765625 "/></g></g></g></g></g><g transform="matrix(1, 0, 0, 1, 46, 178)"><g clip-path="url(#49351ca4f3)"><g fill="#ffffff" fill-opacity="1"><g transform="translate(0.422129, 97.108465)"><g><path d="M 4.875 -17.765625 L 19.140625 -19.34375 C 19.484375 -16.445312 20.390625 -14.296875 21.859375 -12.890625 C 23.328125 -11.492188 25.265625 -10.796875 27.671875 -10.796875 C 30.710938 -10.796875 33.300781 -12.191406 35.4375 -14.984375 C 37.570312 -17.785156 38.9375 -23.585938 39.53125 -32.390625 C 35.820312 -28.097656 31.191406 -25.953125 25.640625 -25.953125 C 19.585938 -25.953125 14.367188 -28.28125 9.984375 -32.9375 C 5.597656 -37.601562 3.40625 -43.675781 3.40625 -51.15625 C 3.40625 -58.957031 5.71875 -65.242188 10.34375 -70.015625 C 14.976562 -74.785156 20.878906 -77.171875 28.046875 -77.171875 C 35.835938 -77.171875 42.234375 -74.15625 47.234375 -68.125 C 52.234375 -62.09375 54.734375 -52.175781 54.734375 -38.375 C 54.734375 -24.320312 52.128906 -14.1875 46.921875 -7.96875 C 41.710938 -1.75 34.929688 1.359375 26.578125 1.359375 C 20.566406 1.359375 15.707031 -0.238281 12 -3.4375 C 8.300781 -6.632812 5.925781 -11.410156 4.875 -17.765625 Z M 38.21875 -49.953125 C 38.21875 -54.710938 37.125 -58.398438 34.9375 -61.015625 C 32.75 -63.640625 30.222656 -64.953125 27.359375 -64.953125 C 24.640625 -64.953125 22.378906 -63.875 20.578125 -61.71875 C 18.773438 -59.570312 17.875 -56.050781 17.875 -51.15625 C 17.875 -46.195312 18.851562 -42.554688 20.8125 -40.234375 C 22.769531 -37.910156 25.21875 -36.75 28.15625 -36.75 C 30.976562 -36.75 33.359375 -37.863281 35.296875 -40.09375 C 37.242188 -42.332031 38.21875 -45.617188 38.21875 -49.953125 Z M 38.21875 -49.953125 "/></g></g></g><g fill="#ffffff" fill-opacity="1"><g transform="translate(50.890792, 97.108465)"><g><path d="M 29.453125 -77.171875 C 36.898438 -77.171875 42.722656 -74.515625 46.921875 -69.203125 C 51.910156 -62.910156 54.40625 -52.476562 54.40625 -37.90625 C 54.40625 -23.363281 51.890625 -12.910156 46.859375 -6.546875 C 42.703125 -1.304688 36.898438 1.3125 29.453125 1.3125 C 21.984375 1.3125 15.957031 -1.5625 11.375 -7.3125 C 6.800781 -13.0625 4.515625 -23.3125 4.515625 -38.0625 C 4.515625 -52.53125 7.03125 -62.941406 12.0625 -69.296875 C 16.21875 -74.546875 22.015625 -77.171875 29.453125 -77.171875 Z M 29.453125 -64.953125 C 27.671875 -64.953125 26.082031 -64.382812 24.6875 -63.25 C 23.289062 -62.113281 22.207031 -60.078125 21.4375 -57.140625 C 20.425781 -53.328125 19.921875 -46.914062 19.921875 -37.90625 C 19.921875 -28.882812 20.375 -22.6875 21.28125 -19.3125 C 22.1875 -15.945312 23.328125 -13.703125 24.703125 -12.578125 C 26.085938 -11.460938 27.671875 -10.90625 29.453125 -10.90625 C 31.242188 -10.90625 32.835938 -11.472656 34.234375 -12.609375 C 35.628906 -13.742188 36.710938 -15.78125 37.484375 -18.71875 C 38.492188 -22.488281 39 -28.882812 39 -37.90625 C 39 -46.914062 38.546875 -53.109375 37.640625 -56.484375 C 36.734375 -59.859375 35.585938 -62.113281 34.203125 -63.25 C 32.828125 -64.382812 31.242188 -64.953125 29.453125 -64.953125 Z M 29.453125 -64.953125 "/></g></g></g><g fill="#ffffff" fill-opacity="1"><g transform="translate(101.359455, 97.108465)"><g><path d="M 29.453125 -77.171875 C 36.898438 -77.171875 42.722656 -74.515625 46.921875 -69.203125 C 51.910156 -62.910156 54.40625 -52.476562 54.40625 -37.90625 C 54.40625 -23.363281 51.890625 -12.910156 46.859375 -6.546875 C 42.703125 -1.304688 36.898438 1.3125 29.453125 1.3125 C 21.984375 1.3125 15.957031 -1.5625 11.375 -7.3125 C 6.800781 -13.0625 4.515625 -23.3125 4.515625 -38.0625 C 4.515625 -52.53125 7.03125 -62.941406 12.0625 -69.296875 C 16.21875 -74.546875 22.015625 -77.171875 29.453125 -77.171875 Z M 29.453125 -64.953125 C 27.671875 -64.953125 26.082031 -64.382812 24.6875 -63.25 C 23.289062 -62.113281 22.207031 -60.078125 21.4375 -57.140625 C 20.425781 -53.328125 19.921875 -46.914062 19.921875 -37.90625 C 19.921875 -28.882812 20.375 -22.6875 21.28125 -19.3125 C 22.1875 -15.945312 23.328125 -13.703125 24.703125 -12.578125 C 26.085938 -11.460938 27.671875 -10.90625 29.453125 -10.90625 C 31.242188 -10.90625 32.835938 -11.472656 34.234375 -12.609375 C 35.628906 -13.742188 36.710938 -15.78125 37.484375 -18.71875 C 38.492188 -22.488281 39 -28.882812 39 -37.90625 C 39 -46.914062 38.546875 -53.109375 37.640625 -56.484375 C 36.734375 -59.859375 35.585938 -62.113281 34.203125 -63.25 C 32.828125 -64.382812 31.242188 -64.953125 29.453125 -64.953125 Z M 29.453125 -64.953125 "/></g></g></g><g fill="#ffffff" fill-opacity="1"><g transform="translate(151.828118, 97.108465)"><g><path d="M 42.25 0 L 27.515625 0 L 27.515625 -55.515625 C 22.140625 -50.484375 15.800781 -46.757812 8.5 -44.34375 L 8.5 -57.71875 C 12.34375 -58.976562 16.515625 -61.363281 21.015625 -64.875 C 25.523438 -68.382812 28.617188 -72.484375 30.296875 -77.171875 L 42.25 -77.171875 Z M 42.25 0 "/></g></g></g></g></g><g transform="matrix(1, 0, 0, 1, 48, 301)"><g clip-path="url(#072a498997)"><g fill="#0b1d33" fill-opacity="1"><g transform="translate(0.553544, 69.105849)"><g><path d="M 35.890625 -36.296875 L 26.328125 -34.21875 C 25.628906 -39.8125 23.5625 -42.609375 20.125 -42.609375 C 18.007812 -42.609375 16.453125 -41.835938 15.453125 -40.296875 C 14.453125 -38.765625 13.820312 -36.835938 13.5625 -34.515625 C 13.300781 -32.203125 13.171875 -29.179688 13.171875 -25.453125 C 13.171875 -21.691406 13.296875 -18.582031 13.546875 -16.125 C 13.796875 -13.675781 14.429688 -11.609375 15.453125 -9.921875 C 16.472656 -8.242188 18.050781 -7.40625 20.1875 -7.40625 C 24.03125 -7.40625 26.296875 -10.894531 26.984375 -17.875 L 36.296875 -14.875 C 34.835938 -4.382812 29.523438 0.859375 20.359375 0.859375 C 14.703125 0.859375 10.445312 -1.234375 7.59375 -5.421875 C 4.738281 -9.609375 3.3125 -15.953125 3.3125 -24.453125 C 3.3125 -29.773438 3.734375 -34.332031 4.578125 -38.125 C 5.429688 -41.925781 7.117188 -45 9.640625 -47.34375 C 12.171875 -49.6875 15.710938 -50.859375 20.265625 -50.859375 C 24.628906 -50.859375 28.078125 -49.707031 30.609375 -47.40625 C 33.148438 -45.113281 34.910156 -41.410156 35.890625 -36.296875 Z M 35.890625 -36.296875 "/></g></g></g><g fill="#0b1d33" fill-opacity="1"><g transform="translate(38.857441, 69.105849)"><g><path d="M 14.59375 -42.09375 L 14.59375 -30.296875 L 29.75 -30.296875 L 29.75 -22.375 L 14.59375 -22.375 L 14.59375 -7.90625 L 32.203125 -7.90625 L 32.203125 0 L 5.109375 0 L 5.109375 -50 L 31.3125 -50 L 31.3125 -42.09375 Z M 14.59375 -42.09375 "/></g></g></g><g fill="#0b1d33" fill-opacity="1"><g transform="translate(73.955136, 69.105849)"><g><path d="M 37.25 -35.78125 C 37.25 -32.457031 36.441406 -29.65625 34.828125 -27.375 C 33.210938 -25.09375 30.753906 -23.40625 27.453125 -22.3125 C 28.253906 -22.0625 29 -21.691406 29.6875 -21.203125 C 30.382812 -20.710938 31.171875 -19.847656 32.046875 -18.609375 C 32.921875 -17.367188 33.847656 -15.625 34.828125 -13.375 L 41.140625 0 L 30.421875 0 L 24.65625 -11.96875 C 23.269531 -14.769531 22.175781 -16.773438 21.375 -17.984375 C 20.582031 -19.203125 19.875 -19.984375 19.25 -20.328125 C 18.625 -20.671875 17.789062 -20.84375 16.75 -20.84375 L 14.59375 -20.84375 L 14.59375 0 L 5.109375 0 L 5.109375 -50 L 21.25 -50 C 26.78125 -50 30.828125 -48.78125 33.390625 -46.34375 C 35.960938 -43.914062 37.25 -40.394531 37.25 -35.78125 Z M 27.59375 -35.34375 C 27.59375 -37.65625 26.910156 -39.316406 25.546875 -40.328125 C 24.179688 -41.347656 22.144531 -41.859375 19.4375 -41.859375 L 14.59375 -41.859375 L 14.59375 -28.421875 L 18.65625 -28.421875 C 21.75 -28.421875 24.007812 -29 25.4375 -30.15625 C 26.875 -31.3125 27.59375 -33.039062 27.59375 -35.34375 Z M 27.59375 -35.34375 "/></g></g></g><g fill="#0b1d33" fill-opacity="1"><g transform="translate(114.339562, 69.105849)"><g><path d="M 22.234375 -42.203125 L 22.234375 0 L 12.75 0 L 12.75 -42.203125 L 1.234375 -42.203125 L 1.234375 -50 L 33.703125 -50 L 33.703125 -42.203125 Z M 22.234375 -42.203125 "/></g></g></g><g fill="#0b1d33" fill-opacity="1"><g transform="translate(149.266709, 69.105849)"><g><path d="M 5.109375 0 L 5.109375 -50 L 14.59375 -50 L 14.59375 0 Z M 5.109375 0 "/></g></g></g><g fill="#0b1d33" fill-opacity="1"><g transform="translate(168.981456, 69.105849)"><g><path d="M 14.59375 -42.03125 L 14.59375 -29.703125 L 28.484375 -29.703125 L 28.484375 -21.734375 L 14.59375 -21.734375 L 14.59375 0 L 5.109375 0 L 5.109375 -50 L 32.03125 -50 L 32.03125 -42.03125 Z M 14.59375 -42.03125 "/></g></g></g><g fill="#0b1d33" fill-opacity="1"><g transform="translate(204.045018, 69.105849)"><g><path d="M 5.109375 0 L 5.109375 -50 L 14.59375 -50 L 14.59375 0 Z M 5.109375 0 "/></g></g></g><g fill="#0b1d33" fill-opacity="1"><g transform="translate(223.759765, 69.105849)"><g><path d="M 14.59375 -42.09375 L 14.59375 -30.296875 L 29.75 -30.296875 L 29.75 -22.375 L 14.59375 -22.375 L 14.59375 -7.90625 L 32.203125 -7.90625 L 32.203125 0 L 5.109375 0 L 5.109375 -50 L 31.3125 -50 L 31.3125 -42.09375 Z M 14.59375 -42.09375 "/></g></g></g><g fill="#0b1d33" fill-opacity="1"><g transform="translate(258.857459, 69.105849)"><g><path d="M 39.671875 -26.46875 C 39.671875 -20.082031 39.117188 -14.976562 38.015625 -11.15625 C 36.910156 -7.332031 35.066406 -4.515625 32.484375 -2.703125 C 29.910156 -0.898438 26.359375 0 21.828125 0 L 5.109375 0 L 5.109375 -50 L 21.109375 -50 C 25.734375 -50 29.398438 -49.085938 32.109375 -47.265625 C 34.828125 -45.453125 36.765625 -42.828125 37.921875 -39.390625 C 39.085938 -35.960938 39.671875 -31.65625 39.671875 -26.46875 Z M 14.59375 -7.875 L 19.78125 -7.875 C 22.875 -7.875 25.140625 -8.585938 26.578125 -10.015625 C 28.023438 -11.453125 28.925781 -13.3125 29.28125 -15.59375 C 29.632812 -17.882812 29.8125 -21.03125 29.8125 -25.03125 C 29.8125 -29.90625 29.476562 -33.546875 28.8125 -35.953125 C 28.15625 -38.359375 27.082031 -39.988281 25.59375 -40.84375 C 24.101562 -41.695312 21.941406 -42.125 19.109375 -42.125 L 14.59375 -42.125 Z M 14.59375 -7.875 "/></g></g></g></g></g></svg>