<?xml version="1.0" encoding="UTF-8" standalone="no"?>
<!DOCTYPE svg PUBLIC "-//W3C//DTD SVG 1.1//EN" "http://www.w3.org/Graphics/SVG/1.1/DTD/svg11.dtd">
<svg width="100%" height="100%" viewBox="0 0 842 596" version="1.1" xmlns="http://www.w3.org/2000/svg" xmlns:xlink="http://www.w3.org/1999/xlink" xml:space="preserve" xmlns:serif="http://www.serif.com/" style="fill-rule:evenodd;clip-rule:evenodd;stroke-linejoin:round;stroke-miterlimit:2;">
    <g transform="matrix(0.456306,0,0,0.458659,271.024927,208.860371)">
        <g transform="matrix(131.770319,0,0,131.770319,373.294914,435.498354)">
        </g>
        <text x="300.011px" y="435.498px" style="font-family:'ArialMT', 'Arial', sans-serif;font-size:131.77px;fill:rgb(147,149,152);">a</text>
    </g>
    <g transform="matrix(0.52256,0,0,0.525254,481.053097,180.227015)">
        <g transform="matrix(115,0,0,115,594.136518,435.498354)">
        </g>
        <text x="300.011px" y="435.498px" style="font-family:'ArialMT', 'Arial', sans-serif;font-size:115px;fill:rgb(147,149,152);">brand</text>
    </g>
    <g transform="matrix(2.400798,0,0,2.381112,-568.851193,-481.568824)">
        <clipPath id="_clip1">
            <rect x="244.35" y="229.92" width="41.844" height="135.44"/>
        </clipPath>
        <g clip-path="url(#_clip1)">
            <path d="M364.25,278.39L364.25,267.19L329.2,245.2L323.29,241.49L260.35,280.88L250.84,274.93L313.8,235.53L304.87,229.92L244.36,267.78L244.36,282.08L295.14,313.86L285.64,319.8L244.35,293.96L244.35,305.16L285.52,331.07L330.35,303.02L339.82,308.97L286.03,342.63C273.63,334.88 244.35,316.73 244.35,316.73L244.35,327.93L276.92,348.33L276.91,348.33L285.85,353.93L348.74,314.58L357.91,320.34L295.17,359.76L304.11,365.36L364.22,327.57L364.22,313.11L313.76,281.39L322.93,275.62L364.22,301.46L364.22,290.26L323.39,264.18L278.59,292.3L269.27,286.47L323.31,252.65C336.69,261.1 364.25,278.39 364.25,278.39ZM304.88,287L321.45,297.41L304.11,308.26L287.55,297.9L304.88,287Z" style="fill:rgb(255,124,20);fill-rule:nonzero;"/>
        </g>
    </g>
    <g>
        <g transform="matrix(0.763419,0,0,0.767356,158.377744,160.168953)">
            <path d="M390.45,296.68L390.45,296.52C390.45,280.76 402.51,267.4 419.49,267.4C429.3,267.4 435.33,270.13 441.13,275.04L434.86,282.52C430.52,278.82 426.25,276.49 419.1,276.49C408.72,276.49 400.84,285.58 400.84,296.36L400.84,296.52C400.84,308.1 408.48,316.63 419.98,316.63C425.29,316.63 430.11,314.94 433.57,312.37L433.57,301.83L419.17,301.83L419.17,293.22L443.14,293.22L443.14,316.87C437.59,321.62 429.63,325.64 419.65,325.64C402.04,325.63 390.45,313.08 390.45,296.68Z" style="fill:rgb(147,149,152);fill-rule:nonzero;"/>
        </g>
        <g transform="matrix(0.763419,0,0,0.767356,158.377744,160.168953)">
            <path d="M468.79,277.54L450.93,277.54L450.93,268.37L496.61,268.37L496.61,277.54L478.76,277.54L478.76,324.67L468.79,324.67L468.79,277.54Z" style="fill:rgb(147,149,152);fill-rule:nonzero;"/>
        </g>
        <g transform="matrix(0.763419,0,0,0.767356,158.377744,160.168953)">
            <path d="M502.08,316.46L508.03,309.38C513.42,314.05 518.89,316.7 525.8,316.7C531.91,316.7 535.77,313.8 535.77,309.62L535.77,309.46C535.77,305.44 533.52,303.27 523.06,300.85C511.08,297.95 504.32,294.42 504.32,284.04L504.32,283.88C504.32,274.23 512.36,267.55 523.54,267.55C531.74,267.55 538.26,270.04 543.97,274.63L538.66,282.11C533.59,278.33 528.53,276.32 523.38,276.32C517.59,276.32 514.21,279.3 514.21,283L514.21,283.16C514.21,287.5 516.78,289.43 527.64,292.01C539.54,294.91 545.66,299.17 545.66,308.5L545.66,308.66C545.66,319.2 537.38,325.47 525.55,325.47C516.96,325.47 508.84,322.5 502.08,316.46Z" style="fill:rgb(147,149,152);fill-rule:nonzero;"/>
        </g>
        <g transform="matrix(0.763419,0,0,0.767356,158.377744,160.168953)">
            <path d="M557.32,268.37L599.07,268.37L599.07,277.22L567.22,277.22L567.22,291.86L595.45,291.86L595.45,300.71L567.22,300.71L567.22,315.83L599.47,315.83L599.47,324.68L557.32,324.68L557.32,268.37Z" style="fill:rgb(147,149,152);fill-rule:nonzero;"/>
        </g>
        <g transform="matrix(13.537061,0,0,13.537061,-2668.476368,-1005.655181)">
            <g transform="matrix(12.068703,0,0,12.068703,232.834989,100.668483)">
            </g>
            <text x="206.776px" y="100.668px" style="font-family:'Inter28pt-ExtraBold', 'Inter 28pt';font-weight:800;font-size:12.069px;fill:white;">Sign</text>
        </g>
        <g transform="matrix(13.537061,0,0,13.537061,-2668.476368,-1148.219192)">
            <g transform="matrix(12.068703,0,0,12.068703,245.375125,100.668483)">
            </g>
            <text x="206.776px" y="100.668px" style="font-family:'Inter28pt-ExtraBold', 'Inter 28pt';font-weight:800;font-size:12.069px;fill:white;">Saf<tspan x="226.406px 233.383px 238.357px " y="100.668px 100.668px 100.668px ">ety</tspan></text>
        </g>
        <g id="Hub" transform="matrix(13.537061,0,0,13.537061,-2304.150186,-1005.684631)">
            <g transform="matrix(12.068703,0,0,12.068703,215.562837,100.668483)">
                <path d="M0.229,0.01C0.192,0.01 0.159,0.002 0.132,-0.014C0.105,-0.03 0.085,-0.054 0.07,-0.084C0.056,-0.115 0.049,-0.151 0.049,-0.193L0.049,-0.522L0.218,-0.522L0.218,-0.228C0.218,-0.197 0.225,-0.174 0.24,-0.157C0.255,-0.141 0.276,-0.133 0.303,-0.133C0.321,-0.133 0.336,-0.137 0.349,-0.144C0.363,-0.152 0.373,-0.163 0.38,-0.178C0.387,-0.193 0.391,-0.212 0.391,-0.235L0.391,-0.522L0.56,-0.522L0.56,-0L0.395,-0L0.395,-0.138L0.416,-0.138C0.4,-0.093 0.377,-0.057 0.347,-0.03C0.318,-0.003 0.278,0.01 0.229,0.01Z" style="fill:rgb(251,123,21);fill-rule:nonzero;"/>
            </g>
            <g transform="matrix(12.068703,0,0,12.068703,222.91131,100.668483)">
                <path d="M0.367,0.011C0.343,0.011 0.322,0.007 0.302,-0C0.283,-0.008 0.266,-0.018 0.251,-0.032C0.237,-0.046 0.226,-0.062 0.217,-0.082L0.216,-0.082L0.216,-0L0.049,-0L0.049,-0.728L0.218,-0.728L0.218,-0.447L0.219,-0.447C0.229,-0.465 0.241,-0.481 0.255,-0.493C0.269,-0.506 0.286,-0.516 0.305,-0.522C0.324,-0.529 0.345,-0.533 0.369,-0.533C0.411,-0.533 0.449,-0.522 0.482,-0.5C0.515,-0.477 0.541,-0.446 0.56,-0.406C0.579,-0.365 0.589,-0.317 0.589,-0.262C0.589,-0.206 0.58,-0.157 0.561,-0.117C0.542,-0.076 0.517,-0.045 0.483,-0.022C0.45,-0 0.411,0.011 0.367,0.011ZM0.317,-0.124C0.339,-0.124 0.357,-0.129 0.371,-0.14C0.386,-0.152 0.398,-0.168 0.406,-0.188C0.414,-0.209 0.418,-0.233 0.418,-0.262C0.418,-0.29 0.414,-0.314 0.406,-0.335C0.398,-0.355 0.386,-0.371 0.371,-0.382C0.357,-0.393 0.339,-0.399 0.317,-0.399C0.296,-0.399 0.278,-0.393 0.262,-0.382C0.246,-0.371 0.233,-0.355 0.225,-0.334C0.216,-0.314 0.211,-0.29 0.211,-0.262C0.211,-0.234 0.216,-0.209 0.225,-0.189C0.233,-0.168 0.246,-0.152 0.262,-0.141C0.278,-0.129 0.296,-0.124 0.317,-0.124Z" style="fill:rgb(251,123,21);fill-rule:nonzero;"/>
            </g>
        </g>
        <g transform="matrix(1,0,0,1,2,10.877501)">
            <path d="M608.86,237.833L608.86,346.193L580.301,346.193L580.301,297.691L534.592,297.691L534.592,346.193L506.033,346.193L506.033,227.332L534.592,227.332L534.592,273.6L580.301,273.6L580.301,247.095C582.355,247.14 584.392,247.163 586.412,247.163C591.57,247.163 595.998,246.366 599.694,244.77C603.238,243.24 606.294,240.928 608.86,237.833Z" style="fill:rgb(251,123,21);"/>
        </g>
    </g>
</svg>
