<?xml version="1.0" encoding="UTF-8" standalone="no"?>
<!DOCTYPE svg PUBLIC "-//W3C//DTD SVG 1.1//EN" "http://www.w3.org/Graphics/SVG/1.1/DTD/svg11.dtd">
<svg width="100%" height="100%" viewBox="0 0 792 326" version="1.1" xmlns="http://www.w3.org/2000/svg" xmlns:xlink="http://www.w3.org/1999/xlink" xml:space="preserve" xmlns:serif="http://www.serif.com/" style="fill-rule:evenodd;clip-rule:evenodd;stroke-linejoin:round;stroke-miterlimit:2;">
    <g transform="matrix(2.400798,0,0,2.381112,-586.634991,-547.465271)">
        <g>
            <clipPath id="_clip1">
                <rect x="244.35" y="229.92" width="41.844" height="135.44"/>
            </clipPath>
            <g clip-path="url(#_clip1)">
                <path d="M364.25,278.39L364.25,267.19L329.2,245.2L323.29,241.49L260.35,280.88L250.84,274.93L313.8,235.53L304.87,229.92L244.36,267.78L244.36,282.08L295.14,313.86L285.64,319.8L244.35,293.96L244.35,305.16L285.52,331.07L330.35,303.02L339.82,308.97L286.03,342.63C273.63,334.88 244.35,316.73 244.35,316.73L244.35,327.93L276.92,348.33L276.91,348.33L285.85,353.93L348.74,314.58L357.91,320.34L295.17,359.76L304.11,365.36L364.22,327.57L364.22,313.11L313.76,281.39L322.93,275.62L364.22,301.46L364.22,290.26L323.39,264.18L278.59,292.3L269.27,286.47L323.31,252.65C336.69,261.1 364.25,278.39 364.25,278.39ZM304.88,287L321.45,297.41L304.11,308.26L287.55,297.9L304.88,287Z" style="fill:rgb(255,124,20);fill-rule:nonzero;"/>
            </g>
        </g>
    </g>
    <g transform="matrix(1,0,0,1,-17.783798,-65.896447)">
        <g transform="matrix(13.537061,0,0,13.537061,-2668.476368,-1005.655181)">
            <g transform="matrix(1,0,0,1,206.776,100.668)">
                <g transform="matrix(12.069,0,0,12.069,0,0)">
                    <path d="M0.336,0.011C0.273,0.011 0.219,0.002 0.173,-0.018C0.128,-0.037 0.094,-0.066 0.07,-0.103C0.046,-0.14 0.034,-0.186 0.033,-0.24L0.2,-0.24C0.201,-0.217 0.207,-0.197 0.219,-0.181C0.23,-0.164 0.246,-0.152 0.266,-0.143C0.286,-0.135 0.31,-0.13 0.337,-0.13C0.362,-0.13 0.384,-0.134 0.402,-0.14C0.42,-0.147 0.434,-0.156 0.444,-0.168C0.454,-0.18 0.459,-0.193 0.459,-0.209C0.459,-0.223 0.455,-0.235 0.446,-0.245C0.437,-0.255 0.424,-0.264 0.406,-0.272C0.388,-0.279 0.364,-0.286 0.335,-0.292L0.261,-0.308C0.191,-0.322 0.139,-0.347 0.103,-0.381C0.066,-0.415 0.048,-0.459 0.048,-0.513C0.048,-0.558 0.06,-0.597 0.084,-0.631C0.109,-0.665 0.142,-0.692 0.185,-0.71C0.228,-0.729 0.278,-0.739 0.334,-0.739C0.392,-0.739 0.441,-0.729 0.483,-0.71C0.525,-0.691 0.558,-0.664 0.581,-0.629C0.605,-0.594 0.617,-0.552 0.618,-0.503L0.455,-0.503C0.452,-0.532 0.441,-0.555 0.419,-0.572C0.398,-0.589 0.37,-0.597 0.335,-0.597C0.314,-0.597 0.294,-0.594 0.278,-0.588C0.261,-0.581 0.248,-0.572 0.239,-0.561C0.23,-0.55 0.225,-0.537 0.225,-0.522C0.225,-0.508 0.229,-0.496 0.237,-0.487C0.245,-0.477 0.258,-0.469 0.275,-0.461C0.292,-0.454 0.314,-0.448 0.34,-0.442L0.404,-0.429C0.443,-0.421 0.477,-0.411 0.506,-0.399C0.535,-0.387 0.558,-0.372 0.577,-0.354C0.596,-0.337 0.61,-0.317 0.619,-0.295C0.628,-0.272 0.633,-0.247 0.633,-0.219C0.633,-0.171 0.621,-0.129 0.598,-0.095C0.574,-0.061 0.54,-0.034 0.496,-0.016C0.452,0.002 0.399,0.011 0.336,0.011Z" style="fill:white;fill-rule:nonzero;"/>
                </g>
                <g transform="matrix(12.069,0,0,12.069,8.044036,0)">
                    <path d="M0.049,-0L0.049,-0.522L0.218,-0.522L0.218,-0L0.049,-0ZM0.133,-0.576C0.106,-0.576 0.085,-0.584 0.067,-0.6C0.05,-0.616 0.041,-0.636 0.041,-0.66C0.041,-0.684 0.05,-0.704 0.067,-0.72C0.085,-0.736 0.106,-0.744 0.132,-0.744C0.159,-0.744 0.181,-0.736 0.198,-0.72C0.215,-0.704 0.224,-0.684 0.224,-0.66C0.224,-0.636 0.215,-0.616 0.198,-0.6C0.181,-0.584 0.159,-0.576 0.133,-0.576Z" style="fill:white;fill-rule:nonzero;"/>
                </g>
                <g transform="matrix(12.069,0,0,12.069,11.26165,0)">
                    <path d="M0.303,0.212C0.251,0.212 0.207,0.205 0.172,0.191C0.137,0.177 0.109,0.157 0.09,0.132C0.07,0.108 0.057,0.079 0.052,0.047L0.209,0.041C0.212,0.051 0.218,0.06 0.226,0.068C0.235,0.076 0.245,0.082 0.258,0.086C0.271,0.091 0.285,0.093 0.302,0.093C0.334,0.093 0.359,0.084 0.376,0.067C0.392,0.05 0.401,0.025 0.401,-0.009L0.401,-0.092L0.398,-0.092C0.389,-0.073 0.378,-0.056 0.364,-0.043C0.349,-0.03 0.333,-0.021 0.314,-0.014C0.295,-0.008 0.273,-0.004 0.25,-0.004C0.206,-0.004 0.167,-0.015 0.134,-0.037C0.101,-0.058 0.075,-0.088 0.056,-0.127C0.037,-0.167 0.028,-0.212 0.028,-0.265C0.028,-0.319 0.037,-0.366 0.056,-0.406C0.075,-0.446 0.102,-0.477 0.135,-0.5C0.168,-0.522 0.206,-0.533 0.249,-0.533C0.272,-0.533 0.294,-0.529 0.313,-0.522C0.332,-0.515 0.349,-0.505 0.363,-0.492C0.378,-0.479 0.39,-0.463 0.399,-0.445L0.401,-0.445L0.401,-0.522L0.568,-0.522L0.568,-0.024C0.568,0.03 0.557,0.075 0.536,0.11C0.514,0.145 0.483,0.17 0.443,0.187C0.404,0.204 0.357,0.212 0.303,0.212ZM0.299,-0.134C0.321,-0.134 0.339,-0.14 0.355,-0.151C0.371,-0.162 0.383,-0.177 0.392,-0.197C0.401,-0.217 0.405,-0.241 0.405,-0.268C0.405,-0.295 0.401,-0.319 0.392,-0.339C0.383,-0.359 0.371,-0.374 0.355,-0.385C0.339,-0.396 0.321,-0.401 0.299,-0.401C0.278,-0.401 0.261,-0.396 0.246,-0.385C0.231,-0.375 0.219,-0.359 0.211,-0.339C0.203,-0.319 0.199,-0.295 0.199,-0.268C0.199,-0.24 0.203,-0.216 0.211,-0.196C0.219,-0.176 0.231,-0.161 0.246,-0.15C0.261,-0.14 0.278,-0.134 0.299,-0.134Z" style="fill:white;fill-rule:nonzero;"/>
                </g>
                <g transform="matrix(12.069,0,0,12.069,18.710486,0)">
                    <path d="M0.218,-0.287L0.218,-0L0.049,-0L0.049,-0.522L0.213,-0.522L0.214,-0.384L0.193,-0.384C0.209,-0.429 0.232,-0.465 0.261,-0.492C0.291,-0.519 0.331,-0.533 0.38,-0.533C0.418,-0.533 0.45,-0.525 0.477,-0.508C0.503,-0.492 0.524,-0.469 0.538,-0.438C0.553,-0.408 0.56,-0.371 0.56,-0.329L0.56,-0L0.391,-0L0.391,-0.295C0.391,-0.326 0.384,-0.349 0.369,-0.365C0.354,-0.382 0.333,-0.39 0.306,-0.39C0.288,-0.39 0.273,-0.386 0.259,-0.378C0.246,-0.371 0.236,-0.36 0.229,-0.344C0.221,-0.329 0.218,-0.31 0.218,-0.287Z" style="fill:white;fill-rule:nonzero;"/>
                </g>
            </g>
        </g>
        <g transform="matrix(13.537061,0,0,13.537061,-2668.476368,-1148.219192)">
            <g>
                <g transform="matrix(1,0,0,1,206.776,100.668)">
                    <g transform="matrix(12.069,0,0,12.069,0,0)">
                        <path d="M0.336,0.011C0.273,0.011 0.219,0.002 0.173,-0.018C0.128,-0.037 0.094,-0.066 0.07,-0.103C0.046,-0.14 0.034,-0.186 0.033,-0.24L0.2,-0.24C0.201,-0.217 0.207,-0.197 0.219,-0.181C0.23,-0.164 0.246,-0.152 0.266,-0.143C0.286,-0.135 0.31,-0.13 0.337,-0.13C0.362,-0.13 0.384,-0.134 0.402,-0.14C0.42,-0.147 0.434,-0.156 0.444,-0.168C0.454,-0.18 0.459,-0.193 0.459,-0.209C0.459,-0.223 0.455,-0.235 0.446,-0.245C0.437,-0.255 0.424,-0.264 0.406,-0.272C0.388,-0.279 0.364,-0.286 0.335,-0.292L0.261,-0.308C0.191,-0.322 0.139,-0.347 0.103,-0.381C0.066,-0.415 0.048,-0.459 0.048,-0.513C0.048,-0.558 0.06,-0.597 0.084,-0.631C0.109,-0.665 0.142,-0.692 0.185,-0.71C0.228,-0.729 0.278,-0.739 0.334,-0.739C0.392,-0.739 0.441,-0.729 0.483,-0.71C0.525,-0.691 0.558,-0.664 0.581,-0.629C0.605,-0.594 0.617,-0.552 0.618,-0.503L0.455,-0.503C0.452,-0.532 0.441,-0.555 0.419,-0.572C0.398,-0.589 0.37,-0.597 0.335,-0.597C0.314,-0.597 0.294,-0.594 0.278,-0.588C0.261,-0.581 0.248,-0.572 0.239,-0.561C0.23,-0.55 0.225,-0.537 0.225,-0.522C0.225,-0.508 0.229,-0.496 0.237,-0.487C0.245,-0.477 0.258,-0.469 0.275,-0.461C0.292,-0.454 0.314,-0.448 0.34,-0.442L0.404,-0.429C0.443,-0.421 0.477,-0.411 0.506,-0.399C0.535,-0.387 0.558,-0.372 0.577,-0.354C0.596,-0.337 0.61,-0.317 0.619,-0.295C0.628,-0.272 0.633,-0.247 0.633,-0.219C0.633,-0.171 0.621,-0.129 0.598,-0.095C0.574,-0.061 0.54,-0.034 0.496,-0.016C0.452,0.002 0.399,0.011 0.336,0.011Z" style="fill:white;fill-rule:nonzero;"/>
                    </g>
                    <g transform="matrix(12.069,0,0,12.069,8.044036,0)">
                        <path d="M0.206,0.009C0.171,0.009 0.14,0.004 0.114,-0.008C0.087,-0.019 0.066,-0.036 0.051,-0.059C0.036,-0.082 0.028,-0.111 0.028,-0.146C0.028,-0.175 0.034,-0.2 0.044,-0.22C0.054,-0.24 0.069,-0.256 0.087,-0.268C0.106,-0.28 0.127,-0.29 0.152,-0.296C0.176,-0.303 0.202,-0.307 0.229,-0.31C0.26,-0.312 0.285,-0.315 0.303,-0.318C0.322,-0.322 0.335,-0.326 0.343,-0.332C0.351,-0.337 0.355,-0.346 0.355,-0.356L0.355,-0.359C0.355,-0.37 0.353,-0.379 0.347,-0.387C0.341,-0.395 0.333,-0.401 0.322,-0.405C0.311,-0.409 0.298,-0.412 0.283,-0.412C0.268,-0.412 0.254,-0.409 0.243,-0.405C0.231,-0.4 0.222,-0.394 0.215,-0.385C0.208,-0.376 0.204,-0.366 0.202,-0.354L0.046,-0.359C0.05,-0.395 0.062,-0.426 0.081,-0.452C0.101,-0.478 0.128,-0.498 0.163,-0.512C0.197,-0.526 0.239,-0.533 0.288,-0.533C0.325,-0.533 0.358,-0.529 0.387,-0.521C0.416,-0.513 0.44,-0.501 0.461,-0.486C0.481,-0.47 0.497,-0.451 0.507,-0.429C0.518,-0.407 0.523,-0.381 0.523,-0.353L0.523,-0L0.36,-0L0.36,-0.073L0.357,-0.073C0.347,-0.055 0.335,-0.039 0.321,-0.027C0.306,-0.015 0.29,-0.006 0.271,0C0.252,0.006 0.23,0.009 0.206,0.009ZM0.257,-0.102C0.276,-0.102 0.293,-0.105 0.308,-0.112C0.323,-0.119 0.335,-0.129 0.344,-0.142C0.353,-0.155 0.357,-0.17 0.357,-0.188L0.357,-0.235C0.352,-0.233 0.347,-0.231 0.341,-0.229C0.334,-0.228 0.327,-0.226 0.319,-0.224C0.311,-0.222 0.303,-0.22 0.293,-0.219C0.284,-0.217 0.275,-0.215 0.265,-0.214C0.25,-0.212 0.236,-0.208 0.225,-0.203C0.213,-0.198 0.204,-0.191 0.198,-0.183C0.191,-0.175 0.188,-0.165 0.188,-0.153C0.188,-0.143 0.191,-0.133 0.197,-0.125C0.203,-0.118 0.211,-0.112 0.221,-0.108C0.231,-0.104 0.243,-0.102 0.257,-0.102Z" style="fill:white;fill-rule:nonzero;"/>
                    </g>
                    <g transform="matrix(12.069,0,0,12.069,14.944816,0)">
                        <path d="M0.378,-0.522L0.378,-0.393L0.009,-0.393L0.009,-0.522L0.378,-0.522ZM0.103,-0L0.103,-0.573C0.103,-0.61 0.11,-0.64 0.123,-0.664C0.137,-0.688 0.157,-0.706 0.184,-0.718C0.211,-0.729 0.244,-0.735 0.284,-0.735C0.305,-0.735 0.324,-0.735 0.343,-0.734C0.362,-0.733 0.375,-0.732 0.383,-0.732L0.377,-0.603C0.372,-0.603 0.364,-0.604 0.354,-0.604C0.344,-0.604 0.334,-0.604 0.326,-0.604C0.306,-0.604 0.292,-0.6 0.284,-0.592C0.276,-0.583 0.271,-0.57 0.271,-0.551L0.271,-0L0.103,-0Z" style="fill:white;fill-rule:nonzero;"/>
                    </g>
                </g>
                <g transform="matrix(1,0,0,1,226.406,100.668)">
                    <g transform="matrix(12.069,0,0,12.069,0,0)">
                        <path d="M0.295,0.011C0.242,0.011 0.195,-0 0.155,-0.023C0.114,-0.046 0.083,-0.078 0.061,-0.119C0.039,-0.16 0.028,-0.207 0.028,-0.261C0.028,-0.314 0.039,-0.361 0.061,-0.402C0.083,-0.443 0.114,-0.475 0.154,-0.498C0.193,-0.522 0.239,-0.533 0.291,-0.533C0.329,-0.533 0.365,-0.527 0.396,-0.514C0.428,-0.501 0.456,-0.483 0.479,-0.459C0.503,-0.436 0.521,-0.407 0.533,-0.375C0.546,-0.342 0.553,-0.305 0.553,-0.265L0.553,-0.22L0.083,-0.22L0.083,-0.32L0.473,-0.32L0.396,-0.299C0.396,-0.322 0.392,-0.341 0.384,-0.358C0.376,-0.374 0.364,-0.387 0.349,-0.396C0.334,-0.405 0.315,-0.409 0.294,-0.409C0.273,-0.409 0.255,-0.405 0.24,-0.396C0.224,-0.387 0.213,-0.374 0.205,-0.358C0.196,-0.342 0.192,-0.322 0.192,-0.299L0.192,-0.226C0.192,-0.202 0.197,-0.181 0.205,-0.164C0.214,-0.146 0.226,-0.133 0.243,-0.124C0.259,-0.115 0.278,-0.11 0.301,-0.11C0.317,-0.11 0.332,-0.113 0.344,-0.117C0.357,-0.122 0.368,-0.128 0.377,-0.136C0.386,-0.145 0.392,-0.155 0.396,-0.166L0.548,-0.161C0.541,-0.127 0.526,-0.097 0.502,-0.071C0.479,-0.045 0.45,-0.025 0.414,-0.01C0.379,0.004 0.339,0.011 0.295,0.011Z" style="fill:white;fill-rule:nonzero;"/>
                    </g>
                    <g transform="matrix(12.069,0,0,12.069,6.977,0)">
                        <path d="M0.367,-0.522L0.367,-0.393L0.009,-0.393L0.009,-0.522L0.367,-0.522ZM0.094,-0.661L0.263,-0.661L0.263,-0.172C0.263,-0.156 0.266,-0.145 0.273,-0.138C0.279,-0.132 0.292,-0.129 0.31,-0.129C0.317,-0.129 0.327,-0.129 0.339,-0.129C0.351,-0.129 0.36,-0.13 0.365,-0.13L0.37,-0.001C0.359,-0 0.345,0.001 0.327,0.001C0.309,0.002 0.291,0.002 0.272,0.002C0.212,0.002 0.167,-0.01 0.137,-0.034C0.108,-0.059 0.094,-0.096 0.094,-0.146L0.094,-0.661Z" style="fill:white;fill-rule:nonzero;"/>
                    </g>
                    <g transform="matrix(12.069,0,0,12.069,11.951,0)">
                        <path d="M0.061,0.201L0.069,0.072L0.13,0.074C0.144,0.075 0.155,0.074 0.164,0.071C0.172,0.067 0.179,0.062 0.185,0.054C0.19,0.046 0.194,0.036 0.197,0.023L0.204,-0L0.004,-0.522L0.181,-0.522L0.258,-0.278C0.268,-0.245 0.278,-0.212 0.286,-0.178C0.295,-0.144 0.304,-0.11 0.312,-0.075L0.268,-0.075C0.276,-0.11 0.285,-0.144 0.294,-0.178C0.303,-0.212 0.312,-0.245 0.323,-0.278L0.403,-0.522L0.578,-0.522L0.354,0.069C0.342,0.1 0.328,0.125 0.312,0.146C0.296,0.166 0.277,0.181 0.254,0.19C0.232,0.2 0.204,0.205 0.173,0.205C0.154,0.205 0.135,0.205 0.115,0.204C0.096,0.203 0.078,0.202 0.061,0.201Z" style="fill:white;fill-rule:nonzero;"/>
                    </g>
                </g>
            </g>
        </g>
        <g id="Hub" transform="matrix(13.537061,0,0,13.537061,-2304.150186,-1005.684631)">
            <g transform="matrix(12.068703,0,0,12.068703,215.562837,100.668483)">
                <path d="M0.229,0.01C0.192,0.01 0.159,0.002 0.132,-0.014C0.105,-0.03 0.085,-0.054 0.07,-0.084C0.056,-0.115 0.049,-0.151 0.049,-0.193L0.049,-0.522L0.218,-0.522L0.218,-0.228C0.218,-0.197 0.225,-0.174 0.24,-0.157C0.255,-0.141 0.276,-0.133 0.303,-0.133C0.321,-0.133 0.336,-0.137 0.349,-0.144C0.363,-0.152 0.373,-0.163 0.38,-0.178C0.387,-0.193 0.391,-0.212 0.391,-0.235L0.391,-0.522L0.56,-0.522L0.56,-0L0.395,-0L0.395,-0.138L0.416,-0.138C0.4,-0.093 0.377,-0.057 0.347,-0.03C0.318,-0.003 0.278,0.01 0.229,0.01Z" style="fill:rgb(251,123,21);fill-rule:nonzero;"/>
            </g>
            <g transform="matrix(12.068703,0,0,12.068703,222.91131,100.668483)">
                <path d="M0.367,0.011C0.343,0.011 0.322,0.007 0.302,-0C0.283,-0.008 0.266,-0.018 0.251,-0.032C0.237,-0.046 0.226,-0.062 0.217,-0.082L0.216,-0.082L0.216,-0L0.049,-0L0.049,-0.728L0.218,-0.728L0.218,-0.447L0.219,-0.447C0.229,-0.465 0.241,-0.481 0.255,-0.493C0.269,-0.506 0.286,-0.516 0.305,-0.522C0.324,-0.529 0.345,-0.533 0.369,-0.533C0.411,-0.533 0.449,-0.522 0.482,-0.5C0.515,-0.477 0.541,-0.446 0.56,-0.406C0.579,-0.365 0.589,-0.317 0.589,-0.262C0.589,-0.206 0.58,-0.157 0.561,-0.117C0.542,-0.076 0.517,-0.045 0.483,-0.022C0.45,-0 0.411,0.011 0.367,0.011ZM0.317,-0.124C0.339,-0.124 0.357,-0.129 0.371,-0.14C0.386,-0.152 0.398,-0.168 0.406,-0.188C0.414,-0.209 0.418,-0.233 0.418,-0.262C0.418,-0.29 0.414,-0.314 0.406,-0.335C0.398,-0.355 0.386,-0.371 0.371,-0.382C0.357,-0.393 0.339,-0.399 0.317,-0.399C0.296,-0.399 0.278,-0.393 0.262,-0.382C0.246,-0.371 0.233,-0.355 0.225,-0.334C0.216,-0.314 0.211,-0.29 0.211,-0.262C0.211,-0.234 0.216,-0.209 0.225,-0.189C0.233,-0.168 0.246,-0.152 0.262,-0.141C0.278,-0.129 0.296,-0.124 0.317,-0.124Z" style="fill:rgb(251,123,21);fill-rule:nonzero;"/>
            </g>
        </g>
        <g transform="matrix(1,0,0,1,2,10.877501)">
            <path d="M608.86,237.833L608.86,346.193L580.301,346.193L580.301,297.691L534.592,297.691L534.592,346.193L506.033,346.193L506.033,227.332L534.592,227.332L534.592,273.6L580.301,273.6L580.301,247.095C582.355,247.14 584.392,247.163 586.412,247.163C591.57,247.163 595.998,246.366 599.694,244.77C603.238,243.24 606.294,240.928 608.86,237.833Z" style="fill:rgb(251,123,21);"/>
        </g>
    </g>
</svg>
